<?xml version="1.0" standalone="no"?>
<!DOCTYPE svg PUBLIC "-//W3C//DTD SVG 20010904//EN"
 "http://www.w3.org/TR/2001/REC-SVG-20010904/DTD/svg10.dtd">
<svg version="1.0" xmlns="http://www.w3.org/2000/svg"
 width="260.000000pt" height="260.000000pt" viewBox="0 0 260.000000 260.000000"
 preserveAspectRatio="xMidYMid meet">
<metadata>
Created by potrace 1.11, written by Peter Selinger 2001-2013
</metadata>
<g transform="translate(0.000000,260.000000) scale(0.100000,-0.100000)"
fill="#000000" stroke="none">
<path d="M2015 2531 c-15 -14 -97 -39 -152 -47 -26 -4 -212 -8 -413 -8 l-364
-1 -9 -40 c-11 -48 -134 -479 -146 -515 -5 -14 -19 -56 -30 -95 -11 -38 -41
-137 -65 -219 -25 -82 -45 -151 -43 -152 1 -1 31 3 67 8 62 9 292 4 309 -7 5
-2 26 -7 47 -11 57 -9 159 -49 224 -89 113 -69 205 -199 229 -326 10 -52 8
-211 -3 -256 -4 -13 -8 -32 -10 -42 -21 -94 -100 -231 -181 -315 -122 -126
-293 -212 -480 -242 -102 -16 -257 -9 -364 18 -7 1 -15 -2 -17 -7 -5 -13 88
-49 212 -81 118 -31 311 -42 420 -25 412 64 771 424 788 789 14 323 -162 571
-469 661 -88 25 -131 31 -279 36 -66 3 -121 7 -123 9 -9 9 108 426 192 684
l37 112 66 0 c37 0 172 1 301 3 l234 2 28 83 c19 56 24 82 15 82 -6 0 -16 -4
-21 -9z m-790 -133 c-7 -21 -190 -633 -221 -741 -16 -55 -35 -102 -44 -106 -8
-5 -34 -11 -57 -15 l-41 -6 42 143 c23 78 82 276 131 440 l89 297 53 0 c38 0
51 -4 48 -12z m178 -915 c116 -27 238 -93 309 -169 63 -68 119 -186 135 -289
12 -71 6 -218 -12 -285 -73 -283 -325 -527 -618 -599 -71 -17 -187 -27 -252
-22 -31 3 1 17 55 24 192 27 353 103 488 231 238 226 299 618 133 859 -84 123
-191 188 -416 251 l-50 15 83 -1 c46 -1 111 -7 145 -15z"/>
</g>
</svg>
